<svg width="950" height="127" viewBox="0 0 950 127" fill="none" xmlns="http://www.w3.org/2000/svg">
<rect width="950" height="127" fill="black"/>
<path d="M375.248 62.0586C377.146 62.0586 378.096 61.4551 378.096 60.248C378.096 59.6855 378.084 59.1816 378.061 58.7363C378.037 58.291 378.014 57.8457 377.99 57.4004C377.92 56.0645 377.885 54.9863 377.885 54.166C377.885 53.334 377.926 52.5371 378.008 51.7754C378.102 51.002 378.336 50.3516 378.711 49.8242C379.461 48.7344 381.049 48.1895 383.475 48.1895C384.424 48.1895 384.922 48.2246 384.969 48.2949C385.027 48.3535 385.062 48.4473 385.074 48.5762L384.898 51.4062C384.875 51.6875 384.793 51.8281 384.652 51.8281C383.258 51.8281 382.396 51.9336 382.068 52.1445C381.74 52.3438 381.529 52.6074 381.436 52.9355C381.342 53.252 381.295 53.6797 381.295 54.2188L381.418 60.1602C381.418 61.2031 381.084 62.1523 380.416 63.0078C380.193 63.3008 379.93 63.541 379.625 63.7285C380.715 64.2793 381.26 65.4453 381.26 67.2266C381.26 68.1406 381.219 68.9961 381.137 69.793C380.984 71.4336 380.908 72.7637 380.908 73.7832C380.908 74.791 380.943 75.4297 381.014 75.6992C381.096 75.9688 381.225 76.1855 381.4 76.3496C381.881 76.7949 382.836 76.918 384.266 76.7188C384.371 76.7188 384.436 76.7539 384.459 76.8242C384.482 76.8828 384.5 76.9883 384.512 77.1406L384.336 79.9707C384.312 80.1699 384.195 80.2812 383.984 80.3047C383.398 80.3633 382.742 80.3926 382.016 80.3926C381.301 80.3926 380.609 80.2461 379.941 79.9531C379.273 79.6719 378.758 79.2969 378.395 78.8281C377.773 78.043 377.463 76.8711 377.463 75.3125C377.463 74.1406 377.539 72.8457 377.691 71.4277C377.938 69.1191 378.061 67.7129 378.061 67.209C378.061 66.7051 377.99 66.3418 377.85 66.1191C377.721 65.8965 377.539 65.7266 377.305 65.6094C376.895 65.3984 376.262 65.293 375.406 65.293C375.195 65.293 375.084 65.1523 375.072 64.8711L374.896 62.3926C374.896 62.1699 375.014 62.0586 375.248 62.0586ZM575.375 66.5234C573.477 66.5234 572.527 67.127 572.527 68.334C572.527 68.8965 572.539 69.4004 572.562 69.8457C572.586 70.291 572.609 70.7363 572.633 71.1816C572.703 72.5176 572.738 73.6016 572.738 74.4336C572.738 75.2539 572.691 76.0508 572.598 76.8242C572.516 77.5859 572.293 78.2305 571.93 78.7578C571.168 79.8477 569.574 80.3926 567.148 80.3926C566.199 80.3926 565.695 80.3574 565.637 80.2871C565.59 80.2285 565.561 80.1348 565.549 80.0059L565.725 77.1758C565.748 76.8945 565.83 76.7539 565.971 76.7539C567.365 76.7539 568.227 76.6543 568.555 76.4551C568.883 76.2441 569.094 75.9805 569.188 75.6641C569.281 75.3477 569.328 74.9141 569.328 74.3633L569.205 68.4219C569.205 67.3672 569.539 66.418 570.207 65.5742C570.43 65.293 570.693 65.0527 570.998 64.8535C569.908 64.3027 569.363 63.1367 569.363 61.3555C569.363 60.4414 569.398 59.5859 569.469 58.7891C569.633 57.1484 569.715 55.8242 569.715 54.8164C569.715 53.7969 569.674 53.1523 569.592 52.8828C569.521 52.6133 569.398 52.3965 569.223 52.2324C568.906 51.9395 568.432 51.793 567.799 51.793C567.166 51.793 566.738 51.8047 566.516 51.8281C566.305 51.8516 566.188 51.834 566.164 51.7754C566.141 51.7051 566.123 51.5938 566.111 51.4414L566.287 48.6113C566.311 48.4121 566.428 48.3008 566.639 48.2773C567.225 48.2188 567.875 48.1895 568.59 48.1895C569.316 48.1895 570.014 48.3359 570.682 48.6289C571.35 48.9102 571.871 49.2852 572.246 49.7539C572.855 50.5391 573.16 51.7109 573.16 53.2695C573.16 54.4414 573.084 55.7363 572.932 57.1543C572.686 59.4629 572.562 60.8691 572.562 61.373C572.562 61.877 572.627 62.2402 572.756 62.4629C572.896 62.6855 573.084 62.8555 573.318 62.9727C573.705 63.1836 574.338 63.2891 575.217 63.2891C575.416 63.2891 575.527 63.4297 575.551 63.7109L575.727 66.1895C575.727 66.4121 575.609 66.5234 575.375 66.5234Z" fill="#06D6A0"/>
<path d="M387.307 74.1699C387.33 73.9473 387.424 73.8359 387.588 73.8359H389.855V52.7949L387.342 52.4609C387.213 52.4375 387.125 52.4023 387.078 52.3555C387.043 52.3086 387.025 52.2148 387.025 52.0742L386.955 49.6836C386.955 49.4727 387.096 49.3496 387.377 49.3145L392.773 48.752C392.996 48.752 393.125 48.8926 393.16 49.1738L393.494 52.3027L393.266 65.5918L395.516 65.5039L399.752 60.2832L397.607 60.5293C397.42 60.5293 397.326 60.418 397.326 60.1953L397.467 57.3652C397.49 57.1309 397.631 57.0137 397.889 57.0137L405.852 56.9434C406.016 56.9434 406.098 57.084 406.098 57.3652L405.922 60.0195C405.898 60.2422 405.805 60.3535 405.641 60.3535L403.865 60.1953L398.363 66.752L403.426 73.5371L406.326 73.6426C406.549 73.6426 406.672 73.7832 406.695 74.0645L406.871 76.4727C406.871 76.6133 406.836 76.707 406.766 76.7539C406.707 76.7891 406.607 76.8125 406.467 76.8242L401.105 77.0352C400.953 77.0352 400.795 76.9062 400.631 76.6484L395.305 68.5098L393.213 68.668L393.125 73.6777L394.918 73.4844C395.105 73.4844 395.199 73.5957 395.199 73.8184L395.059 76.4727C395.047 76.6133 395.012 76.707 394.953 76.7539C394.895 76.7891 394.789 76.8125 394.637 76.8242L387.729 77.0703C387.553 77.0703 387.453 76.9238 387.43 76.6309L387.307 74.1699ZM421.936 76.8945C420.436 77.2695 418.531 77.457 416.223 77.457C413.867 77.457 412.156 76.7305 411.09 75.2773C409.977 73.7656 409.42 71.3691 409.42 68.0879C409.42 64.6426 409.895 62.0703 410.844 60.3711C411.922 58.4961 413.645 57.3535 416.012 56.9434C416.832 56.8027 417.746 56.7324 418.754 56.7324C420.922 56.7324 422.498 57.2656 423.482 58.332C424.467 59.3984 424.959 61.0273 424.959 63.2188C424.959 64.6484 424.707 65.75 424.203 66.5234C424.039 66.7695 423.816 67.0508 423.535 67.3672C423.254 67.6719 422.732 67.9473 421.971 68.1934C421.221 68.4277 420.359 68.6094 419.387 68.7383C417.875 68.9258 415.795 69.0195 413.146 69.0195C413.299 71 413.785 72.3477 414.605 73.0625C415.227 73.625 416.305 73.9062 417.84 73.9062C419.281 73.9062 420.717 73.7832 422.146 73.5371L422.199 72.623C422.211 72.4824 422.24 72.3887 422.287 72.3418C422.346 72.2949 422.445 72.2539 422.586 72.2188L425.117 71.6562C425.375 71.6562 425.521 71.7676 425.557 71.9902C425.592 72.1895 425.627 72.582 425.662 73.168C425.697 73.7422 425.732 74.2402 425.768 74.6621C425.803 75.084 425.832 75.4883 425.855 75.875L425.926 76.8594C425.938 77.1523 425.943 77.3984 425.943 77.5977C425.943 77.9492 425.686 78.1543 425.17 78.2129L422.252 78.5645C421.994 78.5645 421.865 78.4355 421.865 78.1777L421.936 76.8945ZM420.301 65.3809C420.605 65.1113 420.787 64.8008 420.846 64.4492C420.916 64.0859 420.951 63.6641 420.951 63.1836C420.951 62.6914 420.904 62.2578 420.811 61.8828C420.729 61.5078 420.582 61.1855 420.371 60.916C419.914 60.3535 419.17 60.0723 418.139 60.0723C416.146 60.0723 414.816 60.5762 414.148 61.584C413.516 62.5215 413.164 64.1387 413.094 66.4355C417.184 66.377 419.586 66.0254 420.301 65.3809ZM428.352 57.6641C428.352 57.4297 428.486 57.3125 428.756 57.3125L436.736 57.1367C436.947 57.1367 437.053 57.2656 437.053 57.5234L437.141 60.5117C437.117 60.6641 437.082 60.7637 437.035 60.8105C436.988 60.8574 436.895 60.8809 436.754 60.8809L434.451 60.9336L439.021 73.8535L443.17 60.8457L440.762 61.0742C440.574 61.0742 440.475 60.9746 440.463 60.7754L440.621 57.5234C440.633 57.2656 440.762 57.1367 441.008 57.1367L448.689 56.9609C448.877 56.9727 448.971 57.1133 448.971 57.3828L448.795 60.4238C448.771 60.6699 448.643 60.793 448.408 60.793L446.861 60.6523L438.389 84.5586C438.295 84.8398 438.154 84.9805 437.967 84.9805L434.486 84.0312C434.229 83.9961 434.1 83.8789 434.1 83.6797C434.1 83.5977 434.123 83.5156 434.17 83.4336L438.02 76.0684L436.508 76.1211C436.355 76.1211 436.227 76.0156 436.121 75.8047L430.215 61.0215L428.545 61.0566C428.299 61.0566 428.176 60.916 428.176 60.6348L428.352 57.6641ZM456.125 73.6426C456.266 73.9473 456.365 74.2754 456.424 74.627C456.494 74.9785 456.529 75.3066 456.529 75.6113C456.529 75.916 456.424 76.1973 456.213 76.4551C456.014 76.7012 455.744 76.9062 455.404 77.0703C454.701 77.4102 454.021 77.5801 453.365 77.5801C452.709 77.5801 452.258 77.4746 452.012 77.2637C451.766 77.0645 451.566 76.8125 451.414 76.5078C451.121 75.9219 450.975 75.3477 450.975 74.7852C450.975 74.2109 451.104 73.7949 451.361 73.5371C451.619 73.2793 451.936 73.0742 452.311 72.9219C452.955 72.6758 453.594 72.5527 454.227 72.5527C454.871 72.5527 455.311 72.6582 455.545 72.8691C455.791 73.0684 455.984 73.3262 456.125 73.6426ZM456.125 60.1602C456.266 60.4648 456.365 60.793 456.424 61.1445C456.494 61.4961 456.529 61.8242 456.529 62.1289C456.529 62.4336 456.424 62.7148 456.213 62.9727C456.014 63.2188 455.744 63.4238 455.404 63.5879C454.701 63.9277 454.021 64.0977 453.365 64.0977C452.709 64.0977 452.258 63.998 452.012 63.7988C451.766 63.5879 451.566 63.3301 451.414 63.0254C451.121 62.4395 450.975 61.8652 450.975 61.3027C450.975 60.7285 451.104 60.3125 451.361 60.0547C451.619 59.7969 451.936 59.5977 452.311 59.457C452.955 59.1992 453.594 59.0703 454.227 59.0703C454.871 59.0703 455.311 59.1758 455.545 59.3867C455.791 59.5859 455.984 59.8438 456.125 60.1602ZM468.939 57.6641C468.939 57.4297 469.074 57.3125 469.344 57.3125H477.324C477.488 57.3125 477.582 57.3477 477.605 57.418C477.629 57.4766 477.641 57.5703 477.641 57.6992L477.377 60.5117C477.354 60.6641 477.318 60.7637 477.271 60.8105C477.225 60.8574 477.131 60.8809 476.99 60.8809L475.145 60.9336L479.627 73.5195L483.529 60.6699L481.385 60.8984C481.197 60.8984 481.098 60.7988 481.086 60.5996L480.893 57.6992C480.928 57.4648 481.057 57.3359 481.279 57.3125L488.785 56.9609C488.973 56.9727 489.066 57.1133 489.066 57.3828V60.5996C489.02 60.8457 488.891 60.9688 488.68 60.9688H486.939L481.49 76.7012C481.42 76.9238 481.262 77.0469 481.016 77.0703L477.869 77.2109C477.646 77.1875 477.482 77.0469 477.377 76.7891L470.926 61.0215L469.309 61.0566C469.062 61.0566 468.939 60.916 468.939 60.6348V57.6641ZM502.215 56.7676C505.684 56.7676 507.418 58.9238 507.418 63.2363C507.418 64.2559 507.395 65.5742 507.348 67.1914L507.225 70.6367C507.201 71.3281 507.172 71.9844 507.137 72.6055L507.066 74.2754L508.121 74.1875C508.508 74.1641 508.947 74.1289 509.439 74.082C509.686 74.082 509.809 74.1934 509.809 74.416L509.492 77.1934C509.457 77.4043 509.328 77.5215 509.105 77.5449L504.025 77.8613C503.861 77.8613 503.779 77.7324 503.779 77.4746L504.025 75.418C502.068 76.9297 499.941 77.6855 497.645 77.6855C495.852 77.6855 494.375 77.1641 493.215 76.1211C491.984 75.0195 491.369 73.5371 491.369 71.6738C491.369 69.248 492.207 67.543 493.883 66.5586C495.359 65.6914 497.791 65.2578 501.178 65.2578C501.881 65.2578 502.631 65.2754 503.428 65.3105C503.439 65.0059 503.445 64.7246 503.445 64.4668V63.7988C503.445 61.5137 502.443 60.3711 500.439 60.3711C499.396 60.3711 498.107 60.6875 496.572 61.3203L496.643 61.9883C496.666 62.2109 496.678 62.3867 496.678 62.5156C496.678 62.7734 496.549 62.9023 496.291 62.9023L493.32 62.9551C493.109 62.9199 492.992 62.791 492.969 62.5684L492.67 57.541C492.67 57.2598 492.799 57.1016 493.057 57.0664L495.992 56.6797C496.238 56.6797 496.361 56.8086 496.361 57.0664V58.5254C498.459 57.3535 500.41 56.7676 502.215 56.7676ZM498.875 74.3633C500.223 74.3633 501.705 73.9766 503.322 73.2031C503.346 72.4297 503.357 71.5801 503.357 70.6543C503.369 69.7168 503.387 68.791 503.41 67.877C500.328 67.877 498.189 68.1406 496.994 68.668C495.893 69.1602 495.342 69.9805 495.342 71.1289C495.342 73.2852 496.52 74.3633 498.875 74.3633ZM512.762 53.1641C512.551 53.1641 512.445 53.0352 512.445 52.7773L512.551 49.332C512.551 49.1914 512.586 49.1035 512.656 49.0684C512.727 49.0215 512.832 48.9863 512.973 48.9629L518.686 49.1035C518.814 49.1035 518.896 49.1387 518.932 49.209C518.967 49.2676 518.99 49.3672 519.002 49.5078L518.879 52.3027L519.143 73.3262L521.533 73.1328C521.697 73.1328 521.791 73.2441 521.814 73.4668L522.025 76.6484C522.002 76.7891 521.961 76.8828 521.902 76.9297C521.855 76.9648 521.756 76.9883 521.604 77L512.059 76.8945C511.895 76.8945 511.812 76.7539 511.812 76.4727V73.4668C511.812 73.2441 511.906 73.1328 512.094 73.1328L515.416 73.3438V52.9531L512.762 53.1641ZM540.078 57.6641C540.266 57.6641 540.359 57.8047 540.359 58.0859L540.535 72.9219L542.891 72.834C543.125 72.8457 543.242 72.9863 543.242 73.2559L542.926 76.4727C542.914 76.7188 542.773 76.8418 542.504 76.8418H538.162C537.799 76.8418 537.559 76.6191 537.441 76.1738L537.02 74.3984C535.086 76.0625 532.883 76.8945 530.41 76.8945C526.953 76.8945 525.225 74.6855 525.225 70.2676C525.225 68.7324 525.312 67.0215 525.488 65.1348L525.84 61.1621L523.59 61.2324C523.344 61.2324 523.221 61.0918 523.221 60.8105L523.572 57.6992C523.596 57.5586 523.631 57.4707 523.678 57.4355C523.736 57.3887 523.836 57.3594 523.977 57.3477L529.566 57.4883C529.73 57.4883 529.812 57.6172 529.812 57.875C529.754 58.4375 529.695 59.0703 529.637 59.7734C529.145 65.0586 528.898 68.3223 528.898 69.5645C528.898 70.8066 529.133 71.709 529.602 72.2715C530.07 72.8223 530.914 73.0977 532.133 73.0977C533.352 73.0977 534.904 72.5 536.791 71.3047V61.1973L534.594 61.0742C534.43 61.0508 534.33 60.9512 534.295 60.7754L534.629 57.875C534.676 57.6172 534.805 57.4883 535.016 57.4883L540.078 57.6641ZM558.482 76.8945C556.982 77.2695 555.078 77.457 552.77 77.457C550.414 77.457 548.703 76.7305 547.637 75.2773C546.523 73.7656 545.967 71.3691 545.967 68.0879C545.967 64.6426 546.441 62.0703 547.391 60.3711C548.469 58.4961 550.191 57.3535 552.559 56.9434C553.379 56.8027 554.293 56.7324 555.301 56.7324C557.469 56.7324 559.045 57.2656 560.029 58.332C561.014 59.3984 561.506 61.0273 561.506 63.2188C561.506 64.6484 561.254 65.75 560.75 66.5234C560.586 66.7695 560.363 67.0508 560.082 67.3672C559.801 67.6719 559.279 67.9473 558.518 68.1934C557.768 68.4277 556.906 68.6094 555.934 68.7383C554.422 68.9258 552.342 69.0195 549.693 69.0195C549.846 71 550.332 72.3477 551.152 73.0625C551.773 73.625 552.852 73.9062 554.387 73.9062C555.828 73.9062 557.264 73.7832 558.693 73.5371L558.746 72.623C558.758 72.4824 558.787 72.3887 558.834 72.3418C558.893 72.2949 558.992 72.2539 559.133 72.2188L561.664 71.6562C561.922 71.6562 562.068 71.7676 562.104 71.9902C562.139 72.1895 562.174 72.582 562.209 73.168C562.244 73.7422 562.279 74.2402 562.314 74.6621C562.35 75.084 562.379 75.4883 562.402 75.875L562.473 76.8594C562.484 77.1523 562.49 77.3984 562.49 77.5977C562.49 77.9492 562.232 78.1543 561.717 78.2129L558.799 78.5645C558.541 78.5645 558.412 78.4355 558.412 78.1777L558.482 76.8945ZM556.848 65.3809C557.152 65.1113 557.334 64.8008 557.393 64.4492C557.463 64.0859 557.498 63.6641 557.498 63.1836C557.498 62.6914 557.451 62.2578 557.357 61.8828C557.275 61.5078 557.129 61.1855 556.918 60.916C556.461 60.3535 555.717 60.0723 554.686 60.0723C552.693 60.0723 551.363 60.5762 550.695 61.584C550.062 62.5215 549.711 64.1387 549.641 66.4355C553.73 66.377 556.133 66.0254 556.848 65.3809Z" fill="white"/>
</svg>
